<svg xmlns="http://www.w3.org/2000/svg" xmlns:xlink="http://www.w3.org/1999/xlink" width="99.773" height="82.808" viewBox="0 0 99.773 82.808">
  <defs>
    <linearGradient id="linear-gradient" x1="0.845" y1="-0.035" x2="0.5" y2="0.961" gradientUnits="objectBoundingBox">
      <stop offset="0" stop-color="#d9d5ce"/>
      <stop offset="1" stop-color="#fff"/>
    </linearGradient>
  </defs>
  <path id="ctos4" d="M46.885,82.7a41.4,41.4,0,0,1-36.815-30L7.175,56.52,0,51.077l12.117-16L27.851,46.978l-5.423,7.179L19.2,51.718a32.448,32.448,0,0,0,61.815-1.189l.713-2.387,8.615,2.542-.7,2.4A41.394,41.394,0,0,1,49.933,82.807C48.922,82.807,47.9,82.769,46.885,82.7ZM71.92,35.771l5.424-7.179,3.272,2.475a32.43,32.43,0,0,0-61.8,1.192l-.712,2.388-8.629-2.54.707-2.4A41.4,41.4,0,0,1,49.892,0c1,0,2.015.037,3.016.109A41.411,41.411,0,0,1,89.74,30.035l2.854-3.788,7.179,5.447L87.654,47.676Z" fill="url(#linear-gradient)"/>
</svg>
