<svg xmlns="http://www.w3.org/2000/svg" width="144" height="136" viewBox="0 0 144 136">
  <g id="Group_112" data-name="Group 112" transform="translate(-1225 -3766)">
    <g id="Rectangle_189" data-name="Rectangle 189" transform="translate(1225 3766)" fill="none" stroke="#dad6d0" stroke-width="0.6">
      <rect width="144" height="136" rx="18" stroke="none"/>
      <rect x="0.3" y="0.3" width="143.4" height="135.4" rx="17.7" fill="none"/>
    </g>
    <path id="Icon_awesome-trello" data-name="Icon awesome-trello" d="M44.362,2.25H6.345A6.339,6.339,0,0,0,0,8.582c-.011,0,0-.452,0,37.994a6.336,6.336,0,0,0,6.332,6.332H44.35a6.336,6.336,0,0,0,6.3-6.332V8.582A6.319,6.319,0,0,0,44.362,2.25ZM22.278,40.617a3.043,3.043,0,0,1-3.042,3.008H9.885a3.031,3.031,0,0,1-3.053-3.008V11.873A3.043,3.043,0,0,1,9.873,8.831h9.374a3.043,3.043,0,0,1,3.042,3.042V40.617ZM44.113,27.952a3.043,3.043,0,0,1-3.042,3.042H31.912a3.043,3.043,0,0,1-3.042-3.042V11.884A3.04,3.04,0,0,1,31.9,8.842h9.17a3.043,3.043,0,0,1,3.042,3.042V27.952Z" transform="translate(1275.061 3806.549)" fill="#2e2a26"/>
  </g>
</svg>
