<svg xmlns="http://www.w3.org/2000/svg" width="144" height="136" viewBox="0 0 144 136">
  <g id="Group_99" data-name="Group 99" transform="translate(-386 -3604)">
    <g id="Rectangle_177" data-name="Rectangle 177" transform="translate(386 3604)" fill="none" stroke="#dad6d0" stroke-width="0.6">
      <rect width="144" height="136" rx="18" stroke="none"/>
      <rect x="0.3" y="0.3" width="143.4" height="135.4" rx="17.7" fill="none"/>
    </g>
    <path id="Icon_awesome-python" data-name="Icon awesome-python" d="M58.039,24.486c-1.016-4.078-2.943-7.153-7.047-7.153H45.7v6.255a9.051,9.051,0,0,1-8.815,8.947H22.791A7.192,7.192,0,0,0,15.744,39.7V53.136c0,3.827,3.326,6.07,7.047,7.166a23.715,23.715,0,0,0,14.094,0c3.55-1.029,7.047-3.1,7.047-7.166V47.765H29.851V45.97H50.992c4.1,0,5.622-2.864,7.047-7.153,1.478-4.421,1.412-8.67,0-14.332ZM37.769,51.341a2.686,2.686,0,1,1-2.653,2.679A2.667,2.667,0,0,1,37.769,51.341ZM22.144,30.768H36.238A7.105,7.105,0,0,0,43.285,23.6V10.155c0-3.827-3.22-6.691-7.047-7.337a43.5,43.5,0,0,0-14.094.013C16.179,3.886,15.1,6.09,15.1,10.168v5.371H29.2v1.795H9.805A8.81,8.81,0,0,0,.99,24.486a26.431,26.431,0,0,0,0,14.332c1,4.17,3.392,7.153,7.5,7.153h4.843v-6.44A8.961,8.961,0,0,1,22.144,30.768ZM21.26,11.95a2.686,2.686,0,1,1,2.653-2.679A2.667,2.667,0,0,1,21.26,11.95Z" transform="translate(428.438 3640.188)" fill="#2e2a26"/>
  </g>
</svg>
