<svg xmlns="http://www.w3.org/2000/svg" width="144" height="136" viewBox="0 0 144 136">
  <g id="Group_101" data-name="Group 101" transform="translate(-722 -3604)">
    <g id="Rectangle_179" data-name="Rectangle 179" transform="translate(722 3604)" fill="none" stroke="#dad6d0" stroke-width="0.6">
      <rect width="144" height="136" rx="18" stroke="none"/>
      <rect x="0.3" y="0.3" width="143.4" height="135.4" rx="17.7" fill="none"/>
    </g>
    <path id="Icon_awesome-aws" data-name="Icon awesome-aws" d="M22.727,22.024c-.091,2.853,1.335,4.117,1.371,4.919a1.028,1.028,0,0,1-.516.79l-1.612,1.129a1.343,1.343,0,0,1-.709.242c-.054,0-1.032.231-2.58-3.226a9.9,9.9,0,0,1-7.887,3.71c-2.051.112-7.609-1.164-7.323-7.081-.2-4.822,4.291-7.818,8.935-7.565a25.3,25.3,0,0,1,5.92.79V13.764c.339-3.333-1.852-5.92-5.645-5.532A15.027,15.027,0,0,0,6.9,9.506c-.927.426-1.046.355-1.354.355-.933,0-.549-2.706-.37-3.049C5.837,6.006,9.7,4.5,13.487,4.522A9.682,9.682,0,0,1,20.5,6.7a8.854,8.854,0,0,1,2.226,6.6v8.729ZM11.84,26.1c4.085-.059,5.815-2.516,6.209-3.838a12.618,12.618,0,0,0,.258-3.452,21.653,21.653,0,0,0-4.984-.613c-1.909-.144-5.394.709-5.258,4.064A3.5,3.5,0,0,0,11.84,26.1Zm21.532,2.9a1.454,1.454,0,0,1-1.6-1.306L25.5,6.96a4.812,4.812,0,0,1-.242-1.081.581.581,0,0,1,.486-.661c.03-.005-.268,0,2.8,0a1.431,1.431,0,0,1,1.581,1.306l4.5,17.741L38.807,6.524a1.426,1.426,0,0,1,1.612-1.29h2.162a1.394,1.394,0,0,1,1.6,1.306l4.21,17.968L53.033,6.54a1.474,1.474,0,0,1,1.6-1.306h2.484c.107-.016.775-.1.661,1.081-.054.233.43-1.343-6.645,21.4a1.454,1.454,0,0,1-1.6,1.306H47.179a1.454,1.454,0,0,1-1.6-1.354L41.4,10.4,37.275,27.652a1.452,1.452,0,0,1-1.6,1.354H33.372Zm34.452.709A17.019,17.019,0,0,1,60.6,28.169a1.613,1.613,0,0,1-.984-1.5V25.314c0-1.064.781-.869,1.112-.742a17.3,17.3,0,0,0,3.629,1.209c4.617.949,6.648-.29,7.145-.564a2.9,2.9,0,0,0,.661-4.4c-1.32-1.107-1.95-1.149-6.693-2.645-.585-.163-5.505-1.715-5.516-6.6-.077-3.558,3.156-7.077,8.758-7.048,1.6,0,5.849.52,7,1.968a1.522,1.522,0,0,1,.242.887V8.653q0,.839-.613.839c-.971-.108-2.695-1.407-6.193-1.354-.868-.045-5.025.115-4.839,3.146-.054,2.388,3.352,3.284,3.741,3.387C72.642,16.053,74.178,16.282,76,18.4a6.845,6.845,0,0,1,.548,6.984c-2.4,4.723-8.619,4.339-8.725,4.336Zm5.064,13.21c-8.822,6.515-21.629,9.983-32.563,9.983A59.1,59.1,0,0,1,.357,37.7c-.823-.742-.1-1.759.9-1.193a80.293,80.293,0,0,0,39.919,10.6,79.392,79.392,0,0,0,30.434-6.242c1.484-.63,2.742.983,1.275,2.063Zm3.677-4.194c-1.129-1.451-7.468-.678-10.306-.339-.855.1-1-.645-.225-1.193,5.048-3.549,13.338-2.532,14.291-1.339s-.258,9.5-4.984,13.468c-.726.613-1.42.29-1.1-.516,1.063-2.677,3.45-8.628,2.322-10.08Z" transform="translate(753.688 3648.648)" fill="#2e2a26"/>
  </g>
</svg>
