<svg xmlns="http://www.w3.org/2000/svg" width="144" height="136" viewBox="0 0 144 136">
  <g id="Group_105" data-name="Group 105" transform="translate(-217 -3766)">
    <g id="Group_109" data-name="Group 109">
      <g id="Rectangle_183" data-name="Rectangle 183" transform="translate(217 3766)" fill="none" stroke="#dad6d0" stroke-width="0.6">
        <rect width="144" height="136" rx="18" stroke="none"/>
        <rect x="0.3" y="0.3" width="143.4" height="135.4" rx="17.7" fill="none"/>
      </g>
      <path id="Icon_awesome-github-alt" data-name="Icon awesome-github-alt" d="M21.321,34.826c0,2.394-1.249,6.313-4.2,6.313s-4.2-3.918-4.2-6.313,1.249-6.313,4.2-6.313S21.321,32.432,21.321,34.826Zm33.672-5.786c0,3.655-.367,7.527-2,10.884-4.342,8.776-16.28,8.57-24.827,8.57-8.684,0-21.333.309-25.847-8.57A24.523,24.523,0,0,1,0,29.041,19.7,19.7,0,0,1,4.755,16.026a17.935,17.935,0,0,1-.882-5.591c0-2.463.561-3.7,1.673-5.935,5.19,0,8.512,1.031,12.465,4.124A43.885,43.885,0,0,1,28.173,7.479a39.521,39.521,0,0,1,9.211,1.054C41.279,5.474,44.6,4.5,49.734,4.5a11.3,11.3,0,0,1,1.673,5.935,17.683,17.683,0,0,1-.882,5.522,19.74,19.74,0,0,1,4.468,13.084Zm-7.367,5.786c0-5.03-3.059-9.463-8.421-9.463a47.106,47.106,0,0,0-6.416.687,33.663,33.663,0,0,1-5.167.367,33.869,33.869,0,0,1-5.167-.367,46.342,46.342,0,0,0-6.416-.687c-5.362,0-8.421,4.434-8.421,9.463,0,10.059,9.211,11.606,17.231,11.606h5.522c8.054,0,17.254-1.535,17.254-11.606Zm-9.463-6.313c-2.956,0-4.2,3.918-4.2,6.313s1.249,6.313,4.2,6.313,4.2-3.918,4.2-6.313S41.119,28.514,38.163,28.514Z" transform="translate(261.568 3809.503)" fill="#2e2a26"/>
    </g>
  </g>
</svg>
