<svg xmlns="http://www.w3.org/2000/svg" width="144" height="136" viewBox="0 0 144 136">
  <g id="Group_108" data-name="Group 108" transform="translate(-722 -3766)">
    <g id="Rectangle_186" data-name="Rectangle 186" transform="translate(722 3766)" fill="none" stroke="#dad6d0" stroke-width="0.6">
      <rect width="144" height="136" rx="18" stroke="none"/>
      <rect x="0.3" y="0.3" width="143.4" height="135.4" rx="17.7" fill="none"/>
    </g>
    <path id="Icon_awesome-jira" data-name="Icon awesome-jira" d="M55.733,27.493C47.44,19.223,36.464,8.167,28.263,0,9.438,18.757.679,27.493.679,27.493a2.314,2.314,0,0,0,0,3.265c15.106,15.049,7.03,7,27.584,27.481,43.155-43,1.786-1.9,27.47-27.493A2.28,2.28,0,0,0,55.733,27.493ZM28.263,37.73l-8.645-8.611,8.645-8.611,8.645,8.611Z" transform="translate(771.79 3803.66)" fill="#2e2a26"/>
  </g>
</svg>
