<svg xmlns="http://www.w3.org/2000/svg" width="144" height="136" viewBox="0 0 144 136">
  <g id="Group_106" data-name="Group 106" transform="translate(-386 -3766)">
    <g id="Rectangle_184" data-name="Rectangle 184" transform="translate(386 3766)" fill="none" stroke="#dad6d0" stroke-width="0.6">
      <rect width="144" height="136" rx="18" stroke="none"/>
      <rect x="0.3" y="0.3" width="143.4" height="135.4" rx="17.7" fill="none"/>
    </g>
    <path id="Icon_simple-mysql" data-name="Icon simple-mysql" d="M56.261,11.7a3.784,3.784,0,0,0-.94.113v.045h.048a7.737,7.737,0,0,0,.734.936c.185.367.343.734.528,1.1l.048-.051a1.276,1.276,0,0,0,.48-1.142c-.137-.161-.158-.322-.274-.48-.137-.23-.432-.343-.617-.525ZM19.788,56.946H16.609c-.1-5.357-.422-10.391-.926-15.124h-.027L10.82,56.946H8.4L3.6,41.822H3.567q-.53,6.806-.669,15.124H0Q.283,46.833,1.406,37.981H5.35L9.928,51.919h.027l4.62-13.938h3.755Q19.576,48.347,19.8,56.946ZM33.565,42.954q-1.945,10.52-5.117,15.3-2.48,3.683-5.429,3.68a5.353,5.353,0,0,1-1.941-.473V59.762a8.8,8.8,0,0,0,1.324.089,3.2,3.2,0,0,0,2.219-.761,2.763,2.763,0,0,0,1.012-2.075,13.756,13.756,0,0,0-.789-3.237L21.366,42.954h3.121l2.493,8.094a10.867,10.867,0,0,1,.7,3.851,52.319,52.319,0,0,0,2.864-11.945h3.018ZM75.833,56.946h-9.02V37.981h3.035V54.614h5.984Zm-11.386.463-3.484-1.715a7.366,7.366,0,0,0,.875-.857q2.227-2.6,2.222-7.727,0-9.414-7.391-9.417a7.032,7.032,0,0,0-5.659,2.39Q48.8,42.7,48.8,47.783q0,5,1.969,7.339a6.741,6.741,0,0,0,5.429,2.109,8.72,8.72,0,0,0,2.486-.336l4.544,2.648,1.235-2.133ZM53.157,53.15C52.386,51.915,52,49.926,52,47.2q0-7.166,4.355-7.168a3.664,3.664,0,0,1,3.351,1.715q1.152,1.862,1.152,5.909,0,7.223-4.355,7.229a3.666,3.666,0,0,1-3.354-1.715Zm-5.686-1.458a5.024,5.024,0,0,1-1.77,3.965A6.953,6.953,0,0,1,40.955,57.2a9.512,9.512,0,0,1-5.395-1.766l.813-1.632a9.2,9.2,0,0,0,4.081,1.125,4.287,4.287,0,0,0,2.685-.754,2.584,2.584,0,0,0,1.029-2.109c0-1.132-.789-2.092-2.222-2.9-1.331-.73-3.989-2.253-3.989-2.253a4.539,4.539,0,0,1-2.167-4.037A4.707,4.707,0,0,1,37.4,39.154a6.076,6.076,0,0,1,4.184-1.423,8.609,8.609,0,0,1,4.8,1.406l-.73,1.632a9.349,9.349,0,0,0-3.649-.789,3.229,3.229,0,0,0-2.243.706,2.348,2.348,0,0,0-.851,1.8c0,1.125.8,2.092,2.284,2.915,1.348.737,4.071,2.3,4.071,2.3A4.464,4.464,0,0,1,47.492,51.7ZM79.647,31.623a10.515,10.515,0,0,0-4.448.645c-.343.137-.892.137-.94.573.189.182.216.48.377.734a5.261,5.261,0,0,0,1.187,1.4c.48.377.96.741,1.464,1.063.892.549,1.9.875,2.778,1.427.5.322,1,.73,1.509,1.073.25.171.412.48.734.59v-.069c-.158-.206-.206-.5-.36-.734-.23-.23-.46-.436-.686-.662a11.053,11.053,0,0,0-2.384-2.315c-.734-.5-2.339-1.2-2.641-2.041l-.045-.048a9.228,9.228,0,0,0,1.578-.364c.778-.206,1.492-.161,2.3-.364.364-.093.73-.206,1.1-.322V32c-.412-.412-.72-.971-1.145-1.355a30.411,30.411,0,0,0-3.786-2.822c-.72-.46-1.632-.754-2.39-1.145-.274-.137-.734-.206-.892-.436a8.843,8.843,0,0,1-.943-1.763c-.658-1.262-1.3-2.658-1.876-3.989a23.749,23.749,0,0,0-1.166-2.617A23.106,23.106,0,0,0,60.1,9.3a11.168,11.168,0,0,0-2.936-.94c-.573-.027-1.145-.069-1.715-.093a8.321,8.321,0,0,1-1.063-.806c-1.3-.823-4.678-2.606-5.638-.247-.617,1.488.916,2.956,1.447,3.711a10.572,10.572,0,0,1,1.166,1.715c.161.4.206.806.367,1.221a27.444,27.444,0,0,0,1.19,3.076,10.518,10.518,0,0,0,.847,1.416c.185.25.5.367.573.778a6.676,6.676,0,0,0-.528,1.715,10.159,10.159,0,0,0,.665,7.716c.367.569,1.241,1.831,2.411,1.348,1.029-.412.8-1.715,1.1-2.864.069-.274.024-.456.165-.641v.051c.322.645.645,1.259.94,1.9a12.9,12.9,0,0,0,2.973,3.069c.549.412.984,1.125,1.67,1.379v-.069h-.051a3.061,3.061,0,0,0-.528-.456,11.813,11.813,0,0,1-1.2-1.372,30.042,30.042,0,0,1-2.562-4.177c-.377-.72-.693-1.5-.995-2.205-.137-.274-.137-.686-.367-.823a8.463,8.463,0,0,0-1.1,1.554,13.1,13.1,0,0,0-.645,3.464c-.093.024-.048,0-.093.048-.734-.178-.984-.94-1.259-1.578a9.954,9.954,0,0,1-.206-6.122c.161-.48.847-2,.573-2.456-.144-.436-.6-.686-.847-1.039a8.5,8.5,0,0,1-.823-1.464c-.549-1.283-.823-2.7-1.42-3.985a11.879,11.879,0,0,0-1.145-1.759A11.54,11.54,0,0,1,49.8,8.587c-.113-.25-.274-.665-.093-.94a.391.391,0,0,1,.322-.309c.3-.247,1.149.075,1.447.213A11.728,11.728,0,0,1,53.751,8.7c.322.226.669.662,1.08.775h.48c.734.161,1.56.048,2.246.25a14.675,14.675,0,0,1,3.3,1.578,20.416,20.416,0,0,1,7.151,7.84c.274.528.394,1.012.645,1.56.48,1.132,1.073,2.274,1.56,3.368a14.933,14.933,0,0,0,1.632,3.076c.343.48,1.722.73,2.339.981a16.663,16.663,0,0,1,1.578.645c.789.48,1.557,1.029,2.3,1.557.377.261,1.519.833,1.588,1.3Z" transform="translate(415.692 3794.895)" fill="#2e2a26"/>
  </g>
</svg>
