<svg xmlns="http://www.w3.org/2000/svg" width="144" height="136" viewBox="0 0 144 136">
  <g id="Group_103" data-name="Group 103" transform="translate(-1056 -3604)">
    <g id="Rectangle_181" data-name="Rectangle 181" transform="translate(1056 3604)" fill="none" stroke="#dad6d0" stroke-width="0.6">
      <rect width="144" height="136" rx="18" stroke="none"/>
      <rect x="0.3" y="0.3" width="143.4" height="135.4" rx="17.7" fill="none"/>
    </g>
    <path id="Icon_awesome-docker" data-name="Icon awesome-docker" d="M38.842,24.928H31.505V18.335h7.337Zm0-22.678H31.505V8.988h7.337Zm8.681,16.074H40.186v6.594h7.337V18.324Zm-17.35-8H22.836v6.671h7.337Zm8.67,0H31.505v6.671h7.337Zm30.726,11.1c-1.6-1.077-5.284-1.465-8.114-.932-.366-2.664-1.854-4.984-4.562-7.071l-1.554-1.032-1.032,1.554c-2.042,3.086-2.6,8.17-.411,11.522a11.165,11.165,0,0,1-5.373,1.188H.268A23.3,23.3,0,0,0,5.152,44.643c4.118,4.873,10.29,7.349,18.36,7.349,17.472,0,30.4-8.048,36.454-22.667,2.376.044,7.5.011,10.135-5.017.167-.278.733-1.465.944-1.9l-1.476-.988Zm-56.735-3.1H5.508v6.594h7.337V18.324Zm8.67,0H14.166v6.594H21.5V18.324Zm8.67,0H22.836v6.594h7.337V18.324Zm-8.67-8H14.166v6.671H21.5Z" transform="translate(1096.955 3644.879)" fill="#2e2a26"/>
  </g>
</svg>
