<svg xmlns="http://www.w3.org/2000/svg" width="144" height="136" viewBox="0 0 144 136">
  <g id="Group_110" data-name="Group 110" transform="translate(-891 -3766)">
    <g id="Rectangle_187" data-name="Rectangle 187" transform="translate(891 3766)" fill="none" stroke="#dad6d0" stroke-width="0.6">
      <rect width="144" height="136" rx="18" stroke="none"/>
      <rect x="0.3" y="0.3" width="143.4" height="135.4" rx="17.7" fill="none"/>
    </g>
    <path id="Icon_awesome-confluence" data-name="Icon awesome-confluence" d="M.248,44.321a1.773,1.773,0,0,0,.6,2.408L12.329,53.8a1.761,1.761,0,0,0,2.429-.575.038.038,0,0,1,.011-.022c7.277-12.168,8.73-10.4,30.464-.076a1.766,1.766,0,0,0,2.353-.835c.011-.011.011-.033.022-.043l5.466-12.374a1.765,1.765,0,0,0-.878-2.31c-2.408-1.128-7.179-3.384-11.485-5.455C13.826,19.031,4.835,37.066.248,44.321ZM55.276,10.474a1.773,1.773,0,0,0-.6-2.408L43.205,1.006a1.763,1.763,0,0,0-2.451.477.953.953,0,0,0-.065.108c-7.3,12.211-8.8,10.368-30.431.1A1.766,1.766,0,0,0,7.9,2.524c-.011.011-.011.033-.022.043L2.406,14.942a1.765,1.765,0,0,0,.878,2.31c2.408,1.128,7.19,3.384,11.5,5.466,26.9,13.014,35.875-4.924,40.5-12.244Z" transform="translate(935.998 3805.395)" fill="#2e2a26"/>
  </g>
</svg>
