<svg xmlns="http://www.w3.org/2000/svg" width="144" height="136" viewBox="0 0 144 136">
  <g id="Group_104" data-name="Group 104" transform="translate(-1225 -3604)">
    <g id="Rectangle_182" data-name="Rectangle 182" transform="translate(1225 3604)" fill="none" stroke="#dad6d0" stroke-width="0.6">
      <rect width="144" height="136" rx="18" stroke="none"/>
      <rect x="0.3" y="0.3" width="143.4" height="135.4" rx="17.7" fill="none"/>
    </g>
    <path id="Icon_awesome-php" data-name="Icon awesome-php" d="M43.906,8.471c23.517,0,41.6,9.906,41.6,20.787s-18.1,20.787-41.6,20.787-41.6-9.906-41.6-20.787S20.4,8.471,43.906,8.471m0-2.305C19.662,6.166,0,16.5,0,29.258S19.662,52.35,43.906,52.35,87.812,42.018,87.812,29.258,68.15,6.166,43.906,6.166ZM29.938,27.406c-1.084,5.557-4.912,4.981-9.618,4.981L22.2,22.7C27.414,22.7,30.954,22.137,29.938,27.406ZM13.364,42.2H18.4l1.194-6.147c5.639,0,9.138.412,12.376-2.621,3.581-3.293,4.514-9.152,1.962-12.088C32.6,19.8,30.46,19.05,27.551,19.05h-9.7ZM38.843,12.889h5.008l-1.194,6.147c4.322,0,8.328-.316,10.263,1.468,2.031,1.866,1.056,4.253-1.139,15.518H46.7c2.113-10.894,2.511-11.8,1.743-12.623-.741-.8-2.429-.631-6.5-.631L39.364,36.022H34.356l4.487-23.133ZM69.289,27.406c-1.1,5.639-5.035,4.981-9.618,4.981L61.55,22.7C66.792,22.7,70.3,22.137,69.289,27.406ZM52.714,42.2h5.049l1.194-6.147c5.927,0,9.206.343,12.376-2.621,3.581-3.293,4.514-9.152,1.962-12.088-1.331-1.537-3.471-2.291-6.38-2.291h-9.7Z" transform="translate(1256.478 3640.963)" fill="#2e2a26"/>
  </g>
</svg>
