<svg xmlns="http://www.w3.org/2000/svg" width="144" height="136" viewBox="0 0 144 136">
  <g id="Group_100" data-name="Group 100" transform="translate(-555 -3604)">
    <g id="Rectangle_178" data-name="Rectangle 178" transform="translate(555 3604)" fill="none" stroke="#dad6d0" stroke-width="0.6">
      <rect width="144" height="136" rx="18" stroke="none"/>
      <rect x="0.3" y="0.3" width="143.4" height="135.4" rx="17.7" fill="none"/>
    </g>
    <path id="Icon_simple-kubernetes" data-name="Icon simple-kubernetes" d="M24.408,34.009l.017.024L22.035,39.8a12.369,12.369,0,0,1-4.964-6.212l6.167-1.045.01.012a1.053,1.053,0,0,1,1.158,1.45Zm-1.993-5.093a1.053,1.053,0,0,0,.414-1.808l0-.026-4.691-4.2A12.3,12.3,0,0,0,16.4,30.672l6.014-1.734,0-.022Zm2.739-4.736a1.053,1.053,0,0,0,1.672-.806l.024-.012.359-6.267a12.3,12.3,0,0,0-7.2,3.449l5.136,3.643.01,0Zm1.818,6.578,1.729.835,1.727-.83L30.86,28.9l-1.2-1.49H27.741l-1.2,1.49.428,1.863Zm3.588-7.4a1.053,1.053,0,0,0,1.674.8l.019.007,5.1-3.619A12.41,12.41,0,0,0,30.2,17.1l.354,6.255ZM56.577,37.635,42.768,54.813a3.827,3.827,0,0,1-2.985,1.421l-22.153.007a3.827,3.827,0,0,1-2.983-1.426L.83,37.64A3.787,3.787,0,0,1,.1,34.435L5.023,13.013a3.782,3.782,0,0,1,2.064-2.567L27.042.91a3.842,3.842,0,0,1,3.313,0l19.962,9.532a3.787,3.787,0,0,1,2.064,2.567L57.314,34.43A3.766,3.766,0,0,1,56.577,37.635ZM48.71,32.715c-.1-.024-.246-.062-.347-.081a9.62,9.62,0,0,0-1.146-.091,11.172,11.172,0,0,1-2.141-.354,1.328,1.328,0,0,1-.517-.517l-.481-.141a15.525,15.525,0,0,0-2.49-10.752c.124-.112.359-.318.423-.38a.934.934,0,0,1,.225-.675,11.033,11.033,0,0,1,1.777-1.249,10.149,10.149,0,0,0,.993-.579c.077-.057.182-.148.263-.213a1.2,1.2,0,1,0-1.488-1.868c-.081.065-.191.148-.266.211a10.242,10.242,0,0,0-.789.837,11.3,11.3,0,0,1-1.61,1.457,1.334,1.334,0,0,1-.725.079l-.454.323A15.656,15.656,0,0,0,30.02,13.93l-.029-.533a.943.943,0,0,1-.39-.6,11.115,11.115,0,0,1,.136-2.165A10.306,10.306,0,0,0,29.9,9.5c0-.1,0-.237,0-.34a1.2,1.2,0,1,0-2.39,0l0,.033c0,.1,0,.22,0,.306a9.771,9.771,0,0,0,.16,1.136,11.109,11.109,0,0,1,.134,2.167,1.3,1.3,0,0,1-.388.617l-.029.5a15.367,15.367,0,0,0-9.965,4.791q-.217-.15-.431-.306a.939.939,0,0,1-.71-.069,11.13,11.13,0,0,1-1.61-1.454,9.809,9.809,0,0,0-.787-.835c-.072-.062-.184-.148-.266-.211a1.421,1.421,0,0,0-.832-.316,1.151,1.151,0,0,0-.952.421,1.267,1.267,0,0,0,.294,1.763l.017.012.249.2a9.66,9.66,0,0,0,.99.579,11.342,11.342,0,0,1,1.777,1.249,1.341,1.341,0,0,1,.239.689l.383.342a15.458,15.458,0,0,0-2.44,10.779l-.5.144a1.616,1.616,0,0,1-.514.519,11.218,11.218,0,0,1-2.141.352,10.251,10.251,0,0,0-1.148.093c-.089.017-.215.048-.318.072l-.01,0-.017,0a1.2,1.2,0,1,0,.531,2.327l.017,0,.024-.007.309-.069a10.281,10.281,0,0,0,1.072-.411,11.332,11.332,0,0,1,2.081-.612,1.328,1.328,0,0,1,.689.242l.519-.089a15.549,15.549,0,0,0,6.889,8.6l-.215.521a1.161,1.161,0,0,1,.105.675,11.662,11.662,0,0,1-1.081,1.945,10.043,10.043,0,0,0-.641.954c-.048.089-.108.227-.153.321A1.2,1.2,0,1,0,21,48.163v0c.048-.093.11-.215.148-.3a10.46,10.46,0,0,0,.344-1.1,8.325,8.325,0,0,1,.926-2.146.959.959,0,0,1,.514-.251l.27-.49a15.436,15.436,0,0,0,11.025.029l.254.459a.945.945,0,0,1,.612.371,11.017,11.017,0,0,1,.818,2.009,10.075,10.075,0,0,0,.347,1.093c.038.089.1.215.148.309a1.2,1.2,0,1,0,2.16-1.024c-.048-.093-.108-.23-.155-.321a10.648,10.648,0,0,0-.641-.952,10.988,10.988,0,0,1-1.06-1.9.945.945,0,0,1,.091-.7,4.609,4.609,0,0,1-.2-.483A15.546,15.546,0,0,0,43.5,34.1c.153.024.421.072.51.091a.946.946,0,0,1,.67-.249,11.333,11.333,0,0,1,2.081.612,9.149,9.149,0,0,0,1.072.414c.086.024.211.045.311.067l.022.007.017,0a1.2,1.2,0,1,0,.531-2.327Zm-9.48-9.827-4.665,4.177v.012a1.053,1.053,0,0,0,.414,1.811l.007.024,6.042,1.741a12.515,12.515,0,0,0-1.8-7.767Zm-9.6,12.738a1.052,1.052,0,0,0-1.856,0h0l-3.033,5.483a12.353,12.353,0,0,0,7.956.007l-3.038-5.492H29.63Zm4.516-3.093a1.054,1.054,0,0,0-1.158,1.454l-.007.01L35.4,39.829a12.319,12.319,0,0,0,4.978-6.255l-6.219-1.053Z" transform="translate(598.295 3643.566)" fill="#2e2a26"/>
  </g>
</svg>
