<svg xmlns="http://www.w3.org/2000/svg" width="204.29" height="41.592" viewBox="0 0 204.29 41.592">
  <g id="Group_40" data-name="Group 40" transform="translate(-1467.855 -3151.601)">
    <path id="Path_50" data-name="Path 50" d="M53.4,29.284H48.388V7.655H53.4Z" transform="translate(1473.292 3152.551)" fill="#343434"/>
    <path id="Path_60" data-name="Path 60" d="M21.329,33.862a12.7,12.7,0,0,0,3.044-.369V26.468l7.737,4.485,5.256,3.037a21.043,21.043,0,1,0-1,1.12l-5.551-3.218A14.464,14.464,0,1,1,35.776,21a14.257,14.257,0,0,1-.65,4.27L27.584,20.9l6.087-3.513a12.812,12.812,0,0,0-3.305-5.524l-6,3.466V8.507a13,13,0,0,0-3.044-.369,12.866,12.866,0,0,0-3.392.456v6.731l-5.779-3.332a12.832,12.832,0,0,0-3.225,5.571L14.712,20.9,8.879,24.269A12.806,12.806,0,0,0,12.03,29.88l5.9-3.406v6.932a12.866,12.866,0,0,0,3.392.456Z" transform="translate(1467.349 3151.601)" fill="#343434"/>
    <path id="Path_51" data-name="Path 51" d="M60.109,14.775a5.651,5.651,0,0,1,4.9-2.477c4.042,0,5.3,2.418,5.3,6.775v9.635H65.469V20.3c0-2.3-.087-4.18-2.434-4.18-2.05,0-2.934,1.4-2.934,4.357v8.234H55.264V12.659H60.1v2.116Z" transform="translate(1474.145 3153.127)" fill="#343434"/>
    <path id="Path_52" data-name="Path 52" d="M80.965,17.376c-.3-1.194-1.557-1.548-3.078-1.548-1.644,0-2.521.45-2.521,1.194s.558,1.165,1.934,1.43l2.934.538c3.81.715,5.6,1.85,5.6,4.681,0,3.612-3.252,5.433-7.62,5.433s-7.178-1.85-7.736-5.61H74.96c.413,1.548,1.644,2.027,3.31,2.027s2.933-.479,2.933-1.43c0-.715-.645-1.165-2.463-1.489l-2.81-.479C72.882,21.615,70.8,20.038,70.8,17.2c0-3.221,3.31-4.954,7.207-4.954,3.607,0,6.859,1.489,7.475,5.131Z" transform="translate(1476.033 3153.12)" fill="#343434"/>
    <path id="Path_53" data-name="Path 53" d="M87.016,8.718h4.839V13.1h3.462v3.487H91.854v7.187c0,1.519.471,1.821,2.079,1.821h1.376v3.553H92.231c-3.868,0-5.215-.744-5.215-4.5V16.591H84.524V13.1h2.492Z" transform="translate(1477.776 3152.683)" fill="#343434"/>
    <path id="Path_54" data-name="Path 54" d="M105.837,18.072c0-1.88-.934-2.565-2.665-2.565a2.55,2.55,0,0,0-2.81,2.359H95.849c.2-3.015,3.078-5.7,7.736-5.7s7.12,1.85,7.032,6.745L110.56,22.4a36.424,36.424,0,0,0,.354,6.325h-4.744l-.058-1.939c-1.174,1.7-3.049,2.329-5.309,2.329-2.991,0-5.454-1.791-5.454-4.71,0-3.937,4.368-5.249,10.5-5.7v-.627Zm-5.512,5.971c0,1.047.963,1.732,2.231,1.732,1.933,0,3.4-.833,3.4-3.789V21.6C102.585,21.9,100.325,22.34,100.325,24.043Z" transform="translate(1479.12 3153.11)" fill="#343434"/>
    <path id="Path_55" data-name="Path 55" d="M116.214,14.775a5.651,5.651,0,0,1,4.9-2.477c4.041,0,5.3,2.418,5.3,6.775v9.635h-4.838V20.3c0-2.3-.087-4.18-2.434-4.18-2.05,0-2.934,1.4-2.934,4.357v8.234h-4.838V12.659h4.838v2.116Z" transform="translate(1481.108 3153.127)" fill="#343434"/>
    <path id="Path_56" data-name="Path 56" d="M128.235,8.718h4.839V13.1h3.462v3.487h-3.462v7.187c0,1.519.47,1.821,2.078,1.821h1.376v3.553h-3.078c-3.868,0-5.216-.744-5.216-4.5V16.591h-2.491V13.1h2.491Z" transform="translate(1482.892 3152.683)" fill="#343434"/>
    <path id="Path_57" data-name="Path 57" d="M148.973,7.655h5.513l8.033,21.629h-5.454l-1.289-3.848h-8.207l-1.26,3.848h-5.332l8-21.629Zm-.029,13.63h5.483L151.7,13.051l-2.752,8.234Z" transform="translate(1484.783 3152.551)" fill="#343434"/>
    <path id="Path_58" data-name="Path 58" d="M166.093,7.655v3.937h-4.839V7.655Zm.028,5.58V29.284h-4.867V13.236Z" transform="translate(1487.299 3152.551)" fill="#343434"/>
    <path id="Path_59" data-name="Path 59" d="M184.076,7.655V29.284h-4.838V27.139a5.624,5.624,0,0,1-4.839,2.536c-4.041,0-6.946-3.162-6.946-8.411s2.9-8.382,6.946-8.382a5.624,5.624,0,0,1,4.839,2.536V7.663h4.838Zm-11.6,13.6c0,2.986,1.587,4.593,3.521,4.593s3.491-1.283,3.491-4.593-1.586-4.563-3.491-4.563S172.472,18.278,172.472,21.256Z" transform="translate(1488.069 3152.551)" fill="#343434"/>
  </g>
</svg>
