<svg xmlns="http://www.w3.org/2000/svg" width="76.594" height="89.541" viewBox="0 0 76.594 89.541">
  <path id="Path_29" data-name="Path 29" d="M76.584,8.82a2.783,2.783,0,0,1,0,.459A5.335,5.335,0,0,1,74.9,12.227L67.2,20.7l-7.7,8.476c-2.027,2.232-4.082,4.448-6.123,6.654q-3.83,4.142-7.666,8.277-3.159,3.409-6.313,6.821Q24.258,67.337,8.593,83.27,5.9,86,3.194,88.722c-.538.54-1.374,1.11-1.98.649a1.626,1.626,0,0,1-.438-1.3L0,62.615c-.034-1.145.258-2.149,1.6-2.179a4.971,4.971,0,0,1,1.686.365,183.114,183.114,0,0,0,20.355,5.64c6.7,1.446,13.688,3,20.576,2.18a18.938,18.938,0,0,0,11.975-5.68,17.133,17.133,0,0,0,4.219-9.976c.617-6.684-2.179-12.713-5.358-18.388C53.3,31.442,51.383,28.4,49.516,25.33l-.168-.276C47.667,22.283,46,19.4,45.5,16.2A14.069,14.069,0,0,1,50.1,3.825,15.469,15.469,0,0,1,61.7.065C66.042.47,70.015,2.65,73.628,5.094c1.357.918,2.821,2.157,2.956,3.727m-6.165.372a2.921,2.921,0,0,0,.836,1.886c.065.065-.03-.027-.038-.032-3.731-2.958-8.73-6.04-13.714-4.571a8.067,8.067,0,0,0-5.9,9.763,7.948,7.948,0,0,0,.291.934c1.254,3.786,4.489,7.716,6.558,11.543,1.522,3.115,4.061,7.5,5.285,10.731C67.768,49.591,66.761,63.5,56.514,69.6c-9.05,5.381-19.326,4.1-28.708,1.735-2.366-.6-4.748-1.119-7.107-1.749s-4.724-1.311-7.065-2.037-4.669-1.5-6.98-2.313c-1.816-.642-3.62-1.32-5.418-2.01l1.7-1.047c-.04.031-.008.358-.009.418l-.01.494q-.01.476-.019.951-.071,3.746-.152,7.493c-.069,2.5-.127,5-.2,7.5,0,.14-.008.28-.012.42q-.078,2.656-.16,5.312Q2.31,86.9,2.242,89.023c0,.136-.008.272-.013.408-.1-.339-.112-.7-.5-.683-.014,0,.061.3.049.3-1.163-.2-.8-.344-.333-.809.491-.584,1.215-1.254,1.672-1.882C13.5,73.474,24.845,60.033,35.618,47.519,46.244,34.95,58.123,21.989,68.982,9.565l1.1-1.254.557-.629.279-.315.14-.158a2.97,2.97,0,0,0-.638,1.983" transform="translate(0 0)" fill="#eee6da"/>
</svg>
