<svg xmlns="http://www.w3.org/2000/svg" width="131.473" height="21.589" viewBox="0 0 131.473 21.589">
  <g id="Group_24" data-name="Group 24" transform="translate(-131.554 -145.853)">
    <path id="Path_2" data-name="Path 2" d="M198.717,48.233h-5.547v6.613H189.8V33.3h8.491a7.441,7.441,0,0,1,5.333,2.091,6.9,6.9,0,0,1,2.219,5.248,7.351,7.351,0,0,1-2.9,5.888l-.939.725,3.84,7.595h-3.8Zm-.981-11.776h-4.565v8.405h4.565a4.9,4.9,0,0,0,3.413-1.195,4.13,4.13,0,0,0,0-6.059A5.009,5.009,0,0,0,197.736,36.457Z" transform="translate(-33.979 112.553)" fill="#d9d5ce"/>
    <path id="Path_3" data-name="Path 3" d="M247.167,33.3a10.142,10.142,0,0,1,7.467,3.2,10.752,10.752,0,0,1,.9,14.208l-.6.768,1.92,3.371h-3.84l-.683-1.28-1.28.512a10.421,10.421,0,0,1-3.925.811,10.288,10.288,0,0,1-7.509-3.157,10.869,10.869,0,0,1,0-15.232A10.4,10.4,0,0,1,247.167,33.3Zm-7.211,10.752a7.282,7.282,0,0,0,2.133,5.248,6.87,6.87,0,0,0,5.12,2.176,6.8,6.8,0,0,0,5.077-2.219,7.314,7.314,0,0,0,.043-10.368,7.061,7.061,0,0,0-10.2,0A7.031,7.031,0,0,0,239.956,44.052Z" transform="translate(-60.754 112.553)" fill="#d9d5ce"/>
    <path id="Path_4" data-name="Path 4" d="M297.2,33.3h3.371V46.612a4.863,4.863,0,0,0,1.365,3.5,4.534,4.534,0,0,0,3.456,1.365,4.664,4.664,0,0,0,3.413-1.365,4.793,4.793,0,0,0,1.365-3.5V33.3h3.413V46.612a8.123,8.123,0,0,1-2.389,5.845,8.189,8.189,0,0,1-11.605.043,8.011,8.011,0,0,1-2.389-5.888Z" transform="translate(-96.09 112.553)" fill="#d9d5ce"/>
    <path id="Path_5" data-name="Path 5" d="M345.647,54.947H341.7L352.241,33.4l10.491,21.547h-3.9l-6.544-13.355Z" transform="translate(-123.138 112.495)" fill="#d9d5ce"/>
    <path id="Path_14" data-name="Path 14" d="M345.647,54.947H341.7L352.241,33.4l10.491,21.547h-3.9l-6.544-13.355Z" transform="translate(-210.146 112.495)" fill="#d9d5ce"/>
    <path id="Path_6" data-name="Path 6" d="M393.1,54.889V33.3h3.371V54.847H393.1Z" transform="translate(-150.159 112.553)" fill="#d9d5ce"/>
    <path id="Path_7" data-name="Path 7" d="M414.9,54.889V33.3h3.371V51.519H427.4v3.328H414.9Z" transform="translate(-164.374 112.553)" fill="#d9d5ce"/>
  </g>
</svg>
