<svg xmlns="http://www.w3.org/2000/svg" width="108.949" height="17.891" viewBox="0 0 108.949 17.891">
  <g id="Group_24" data-name="Group 24" transform="translate(-131.554 -145.853)">
    <path id="Path_2" data-name="Path 2" d="M197.19,45.675h-4.6v5.48H189.8V33.3h7.036a6.166,6.166,0,0,1,4.42,1.732,5.719,5.719,0,0,1,1.839,4.349,6.091,6.091,0,0,1-2.4,4.879l-.778.6,3.182,6.294h-3.147Zm-.813-9.759h-3.783v6.965h3.783a4.064,4.064,0,0,0,2.829-.99,3.423,3.423,0,0,0,0-5.021A4.151,4.151,0,0,0,196.376,35.916Z" transform="translate(-38.136 112.553)"/>
    <path id="Path_3" data-name="Path 3" d="M245.339,33.3a8.4,8.4,0,0,1,6.187,2.652,8.91,8.91,0,0,1,.742,11.774l-.495.636,1.591,2.793h-3.182l-.566-1.061-1.061.424a8.636,8.636,0,0,1-3.253.672,8.526,8.526,0,0,1-6.223-2.616,9.007,9.007,0,0,1,0-12.622A8.616,8.616,0,0,1,245.339,33.3Zm-5.975,8.91a6.034,6.034,0,0,0,1.768,4.349,5.693,5.693,0,0,0,4.243,1.8,5.633,5.633,0,0,0,4.207-1.839,6.061,6.061,0,0,0,.035-8.592,5.852,5.852,0,0,0-8.45,0A5.827,5.827,0,0,0,239.364,42.21Z" transform="translate(-68.325 112.553)"/>
    <path id="Path_4" data-name="Path 4" d="M297.2,33.3h2.793V44.331a4.03,4.03,0,0,0,1.131,2.9,3.757,3.757,0,0,0,2.864,1.131,3.865,3.865,0,0,0,2.829-1.131,3.972,3.972,0,0,0,1.131-2.9V33.3h2.829V44.331a6.731,6.731,0,0,1-1.98,4.844,6.786,6.786,0,0,1-9.617.035,6.638,6.638,0,0,1-1.98-4.879Z" transform="translate(-108.006 112.553)"/>
    <path id="Path_5" data-name="Path 5" d="M344.97,51.255H341.7L350.435,33.4l8.693,17.855H355.9l-5.423-11.067Z" transform="translate(-138.044 112.488)"/>
    <path id="Path_14" data-name="Path 14" d="M344.97,51.255H341.7L350.435,33.4l8.693,17.855H355.9l-5.423-11.067Z" transform="translate(-210.146 112.488)"/>
    <path id="Path_6" data-name="Path 6" d="M393.1,51.191V33.3h2.793V51.155H393.1Z" transform="translate(-169.241 112.553)"/>
    <path id="Path_7" data-name="Path 7" d="M414.9,51.191V33.3h2.793V48.4h7.566v2.758H414.9Z" transform="translate(-184.756 112.553)"/>
  </g>
</svg>
