<svg xmlns="http://www.w3.org/2000/svg" width="176.195" height="56.206" viewBox="0 0 176.195 56.206">
  <g id="Group_43" data-name="Group 43" transform="translate(-237.855 -3143.732)">
    <path id="Path_61" data-name="Path 61" d="M28.56,42.132A14.07,14.07,0,0,0,15.605,28.105,14.073,14.073,0,1,0,.455,14.073,13.813,13.813,0,0,0,13.409,28.1,14.073,14.073,0,1,0,28.56,42.132ZM4.528,14.073a9.979,9.979,0,1,1,9.979,9.994A9.987,9.987,0,0,1,4.528,14.073Zm8.009,28.059a1.97,1.97,0,1,1,1.97,1.97A1.964,1.964,0,0,1,12.537,42.132Z" transform="translate(237.4 3143.732)" fill="#343434"/>
    <path id="Path_62" data-name="Path 62" d="M47.647,39.2a13.779,13.779,0,0,1-6.87-1.7,11.9,11.9,0,0,1-4.71-4.766,14.3,14.3,0,0,1-1.683-6.983,14.175,14.175,0,0,1,1.7-7,12.37,12.37,0,0,1,4.71-4.782,14.444,14.444,0,0,1,13.724,0,12.158,12.158,0,0,1,4.653,4.782,14.383,14.383,0,0,1,1.662,7,14.53,14.53,0,0,1-1.642,6.983A11.727,11.727,0,0,1,54.537,37.5,13.761,13.761,0,0,1,47.647,39.2Zm0-3.766a8.288,8.288,0,0,0,4.618-1.272,8.381,8.381,0,0,0,3.012-3.473,11.328,11.328,0,0,0,1.052-4.966,11.327,11.327,0,0,0-1.052-4.966,8.344,8.344,0,0,0-3.012-3.473,8.246,8.246,0,0,0-4.618-1.272,8.394,8.394,0,0,0-4.638,1.272A8.169,8.169,0,0,0,40,20.753a11.559,11.559,0,0,0-1.036,4.966A11.467,11.467,0,0,0,40,30.686a8.169,8.169,0,0,0,3.012,3.473A8.351,8.351,0,0,0,47.647,35.432Z" transform="translate(241.611 3145.251)" fill="#343434"/>
    <path id="Path_63" data-name="Path 63" d="M59.46,37.817V19.454h3.915v2.991a6.5,6.5,0,0,1,1.052-1.5A6.64,6.64,0,0,1,66.4,19.526a6.42,6.42,0,0,1,2.919-.626,6.791,6.791,0,0,1,3.581.852A5.011,5.011,0,0,1,74.954,22.1a9.04,9.04,0,0,1,.646,3.6V37.817H71.573V26.622a4.638,4.638,0,0,0-.944-3.212,3.4,3.4,0,0,0-2.642-1.036,3.7,3.7,0,0,0-3.027,1.2,5.546,5.546,0,0,0-1.236,2.714,21.677,21.677,0,0,0-.241,3.361v8.163H59.455Z" transform="translate(244.723 3146.078)" fill="#343434"/>
    <path id="Path_64" data-name="Path 64" d="M75.461,38.583V12.725h4.028V38.583Z" transform="translate(246.709 3145.312)" fill="#343434"/>
    <path id="Path_65" data-name="Path 65" d="M81.435,44.959V41.521h4.027a2.64,2.64,0,0,0,1.549-.39,2.86,2.86,0,0,0,.924-1.457l1.478-4.248-.149,3.4-8.937-19.43h4.433l3.545,8.46c.051.123.1.246.149.369s.1.246.149.369c.441,1.036.8,1.857,1.072,2.473s.482,1.118.626,1.514c.051-.149.1-.3.164-.441a3.8,3.8,0,0,0,.164-.482c.123-.4.282-.888.482-1.478s.441-1.318.739-2.18l2.806-8.609H98.9L91.552,40.444a10.278,10.278,0,0,1-1.314,2.642,4.179,4.179,0,0,1-1.79,1.421,7.05,7.05,0,0,1-2.7.441h-4.32Z" transform="translate(247.313 3146.139)" fill="#343434"/>
    <path id="Path_66" data-name="Path 66" d="M114.027,39.2a13.777,13.777,0,0,1-6.869-1.7,11.9,11.9,0,0,1-4.71-4.766,14.3,14.3,0,0,1-1.683-6.983,14.171,14.171,0,0,1,1.7-7,12.367,12.367,0,0,1,4.709-4.782,14.446,14.446,0,0,1,13.725,0,12.161,12.161,0,0,1,4.653,4.782,14.381,14.381,0,0,1,1.663,7,14.519,14.519,0,0,1-1.642,6.983,11.724,11.724,0,0,1-4.653,4.766A13.765,13.765,0,0,1,114.027,39.2Zm0-3.766a8.289,8.289,0,0,0,4.618-1.272,8.38,8.38,0,0,0,3.011-3.473,11.331,11.331,0,0,0,1.052-4.966,11.331,11.331,0,0,0-1.052-4.966,8.34,8.34,0,0,0-3.011-3.473,8.247,8.247,0,0,0-4.618-1.272,8.394,8.394,0,0,0-4.638,1.272,8.171,8.171,0,0,0-3.011,3.473,11.552,11.552,0,0,0-1.036,4.966,11.471,11.471,0,0,0,1.036,4.966,8.171,8.171,0,0,0,3.011,3.473A8.352,8.352,0,0,0,114.027,35.432Z" transform="translate(249.85 3145.251)" fill="#343434"/>
    <path id="Path_67" data-name="Path 67" d="M125.842,37.817V19.454h3.914v2.991a6.54,6.54,0,0,1,1.052-1.5,6.639,6.639,0,0,1,1.975-1.421A6.42,6.42,0,0,1,135.7,18.9a6.792,6.792,0,0,1,3.581.852,5.014,5.014,0,0,1,2.053,2.345,9.048,9.048,0,0,1,.646,3.6V37.817h-4.028V26.622a4.64,4.64,0,0,0-.944-3.212,3.4,3.4,0,0,0-2.642-1.036,3.7,3.7,0,0,0-3.027,1.2,5.538,5.538,0,0,0-1.237,2.714,21.6,21.6,0,0,0-.242,3.361v8.163h-4.028Z" transform="translate(252.961 3146.078)" fill="#343434"/>
    <path id="Path_68" data-name="Path 68" d="M150.727,38.371a8.887,8.887,0,0,1-4.6-1.165,7.828,7.828,0,0,1-3.068-3.345,11.507,11.507,0,0,1-1.088-5.208,10.8,10.8,0,0,1,1.129-5.1,8.484,8.484,0,0,1,3.083-3.437A8.225,8.225,0,0,1,150.62,18.9a8.042,8.042,0,0,1,4.8,1.421,8.192,8.192,0,0,1,2.919,3.858,11.961,11.961,0,0,1,.626,5.469H146a6.93,6.93,0,0,0,.76,3.14,4.225,4.225,0,0,0,1.719,1.755,4.943,4.943,0,0,0,2.329.534,4.183,4.183,0,0,0,2.934-1,6.8,6.8,0,0,0,1.683-2.4l3.659,1.365a8.9,8.9,0,0,1-1.791,2.806,7.732,7.732,0,0,1-2.771,1.847,10.093,10.093,0,0,1-3.786.667ZM154.9,26.586a5.27,5.27,0,0,0-.61-2.493,4,4,0,0,0-1.514-1.549,4.267,4.267,0,0,0-2.159-.534,4.124,4.124,0,0,0-3.012,1.221,5.473,5.473,0,0,0-1.5,3.361H154.9Z" transform="translate(254.964 3146.078)" fill="#343434"/>
  </g>
</svg>
