<svg xmlns="http://www.w3.org/2000/svg" width="166.467" height="57.529" viewBox="0 0 166.467 57.529">
  <g id="Group_41" data-name="Group 41" transform="translate(-1195.855 -3142.409)">
    <path id="Path_88" data-name="Path 88" d="M14.382,14.882,0,29.265,14.382,43.647,28.765,58.029,43.147,43.647,57.529,29.265,43.147,14.882,28.765.5Zm0,0a14.468,14.468,0,0,0,13.97,14.382,14.467,14.467,0,0,0-13.97,14.382,14.468,14.468,0,0,0,14.382-13.97,14.468,14.468,0,0,0,14.382,13.97,14.468,14.468,0,0,0-13.97-14.382,14.467,14.467,0,0,0,13.97-14.382,14.467,14.467,0,0,0-14.382,13.97,14.468,14.468,0,0,0-14.382-13.97Z" transform="translate(1195.855 3141.909)" fill="#343434" fill-rule="evenodd"/>
    <path id="Path_89" data-name="Path 89" d="M67.124,15.682,65.744,14.4a5.639,5.639,0,0,1-3.042.838,5.259,5.259,0,0,1-4.156-1.778A6.772,6.772,0,0,1,57,8.877,6.772,6.772,0,0,1,58.546,4.3a5.689,5.689,0,0,1,8.3,0,6.772,6.772,0,0,1,1.546,4.582,6.889,6.889,0,0,1-1.3,4.257L68.354,14.3ZM62.718,13.2a2.821,2.821,0,0,0,1.4-.325l-1.047-.992,1.23-1.368,1.081,1.026a5.972,5.972,0,0,0,.549-2.667A5.377,5.377,0,0,0,65.1,5.749a2.683,2.683,0,0,0-2.377-1.214,2.782,2.782,0,0,0-2.427,1.214,5.426,5.426,0,0,0-.831,3.129,5.426,5.426,0,0,0,.831,3.129A2.794,2.794,0,0,0,62.718,13.2Z" transform="translate(1208.624 3142.357)" fill="#343434"/>
    <path id="Path_90" data-name="Path 90" d="M72.8,15.126a5.111,5.111,0,0,1-3.491-1.06,3.927,3.927,0,0,1-1.2-3.078V2.7h2.41v8.292a1.937,1.937,0,0,0,2.227,2.154,2.2,2.2,0,0,0,1.679-.6A2.221,2.221,0,0,0,75,10.954V2.7h2.41v8.292a3.934,3.934,0,0,1-1.18,3.06A4.874,4.874,0,0,1,72.8,15.126Z" transform="translate(1211.114 3142.401)" fill="#343434"/>
    <path id="Path_91" data-name="Path 91" d="M76.886,14.92,81.025,2.7h2.494L87.707,14.92H85.2l-.8-2.6H80.111l-.781,2.6ZM81.74,6.9l-1.064,3.522h3.142L82.754,6.9l-.482-1.881h-.033Q81.939,6.252,81.74,6.9Z" transform="translate(1213.079 3142.401)" fill="#343434"/>
    <path id="Path_92" data-name="Path 92" d="M87.359,14.92V2.7H92a4.638,4.638,0,0,1,3.79,1.761,6.836,6.836,0,0,1,1.43,4.48,6.011,6.011,0,0,1-1.9,4.8A5.232,5.232,0,0,1,91.8,14.92Zm2.41-2.137h1.862a2.827,2.827,0,0,0,2.394-.975,4.709,4.709,0,0,0,.748-2.872,5.033,5.033,0,0,0-.8-2.992A2.6,2.6,0,0,0,91.7,4.816H89.769Z" transform="translate(1215.425 3142.401)" fill="#343434"/>
    <path id="Path_93" data-name="Path 93" d="M57.435,31.217V18.992h2.41V31.217Z" transform="translate(1208.721 3146.052)" fill="#343434"/>
    <path id="Path_94" data-name="Path 94" d="M61.724,31.217V18.992h2.444l3.956,6.822q.166.291.366.718.216.427.332.718l.133.274h.033q-.066-1.265-.066-2.12V18.992H71.3V31.217H68.972l-4.056-6.754q-.166-.291-.382-.7-.216-.427-.332-.718l-.133-.274h-.033q.066,1.282.066,2.137v6.309Z" transform="translate(1209.682 3146.052)" fill="#343434"/>
    <path id="Path_95" data-name="Path 95" d="M75.136,31.217,71.129,18.992h2.527l2.095,7.078.515,1.949H76.3q.283-1.163.515-1.949l2.078-7.078h2.444L77.33,31.217Z" transform="translate(1211.789 3146.052)" fill="#343434"/>
    <path id="Path_96" data-name="Path 96" d="M81.059,31.217V18.992H89.8v2.086H83.47v2.736h5.552v2.035H83.47v3.3h6.383v2.069Z" transform="translate(1214.014 3146.052)" fill="#343434"/>
    <path id="Path_97" data-name="Path 97" d="M94.918,31.531a5.931,5.931,0,0,1-3.74-1.043,3.8,3.8,0,0,1-1.4-3.009h2.361a2.153,2.153,0,0,0,.748,1.573,3.229,3.229,0,0,0,1.928.479,3.282,3.282,0,0,0,1.662-.376,1.306,1.306,0,0,0,.648-1.2,1.459,1.459,0,0,0-.083-.513.759.759,0,0,0-.3-.41,4.02,4.02,0,0,0-.4-.291,2.053,2.053,0,0,0-.615-.239q-.449-.137-.682-.188-.233-.068-.864-.222-.765-.188-1.263-.325a6.711,6.711,0,0,1-1.08-.427,3.659,3.659,0,0,1-.931-.633,3.063,3.063,0,0,1-.565-.923,3.516,3.516,0,0,1-.233-1.317,3.18,3.18,0,0,1,1.247-2.7,5.333,5.333,0,0,1,3.308-.957,4.967,4.967,0,0,1,3.242.992,3.817,3.817,0,0,1,1.347,2.821H96.946a1.9,1.9,0,0,0-.731-1.368,2.468,2.468,0,0,0-1.563-.479,2.751,2.751,0,0,0-1.563.393,1.205,1.205,0,0,0-.582,1.043,1.1,1.1,0,0,0,.565,1.026,8.3,8.3,0,0,0,2.028.65q.864.188,1.413.359a7.1,7.1,0,0,1,1.18.462,3.214,3.214,0,0,1,1,.65,2.68,2.68,0,0,1,.6.958,3.786,3.786,0,0,1-1.031,4.189A5.18,5.18,0,0,1,94.918,31.531Z" transform="translate(1215.968 3146.012)" fill="#343434"/>
    <path id="Path_98" data-name="Path 98" d="M98.831,21.078V18.992h9.558v2.086h-3.574V31.217h-2.41V21.078Z" transform="translate(1217.995 3146.052)" fill="#343434"/>
    <path id="Path_99" data-name="Path 99" d="M117.443,29.756a5.765,5.765,0,0,1-8.328,0,6.728,6.728,0,0,1-1.563-4.582,6.728,6.728,0,0,1,1.563-4.582,5.727,5.727,0,0,1,8.328,0,6.728,6.728,0,0,1,1.563,4.582A6.728,6.728,0,0,1,117.443,29.756Zm-6.583-1.47A2.823,2.823,0,0,0,113.3,29.5a2.753,2.753,0,0,0,2.411-1.2,5.432,5.432,0,0,0,.831-3.129,5.433,5.433,0,0,0-.831-3.129,2.741,2.741,0,0,0-2.411-1.214,2.824,2.824,0,0,0-2.443,1.214,5.345,5.345,0,0,0-.848,3.129A5.313,5.313,0,0,0,110.861,28.286Z" transform="translate(1219.948 3146.008)" fill="#343434"/>
    <path id="Path_100" data-name="Path 100" d="M118.8,31.217V18.992h5.452a3.976,3.976,0,0,1,2.76.94,3.131,3.131,0,0,1,1.064,2.462,2.776,2.776,0,0,1-2.178,2.958V25.4a2.358,2.358,0,0,1,1.263.821,3.181,3.181,0,0,1,.548,1.641q.033.41.066.975c.033.365.056.655.067.872l.066.65a2.943,2.943,0,0,0,.116.513.434.434,0,0,0,.2.222v.12h-2.311a.3.3,0,0,1-.116-.12,1.134,1.134,0,0,1-.083-.274l-.066-.342c-.011-.125-.028-.279-.05-.462s-.022-.359-.033-.5-.028-.336-.05-.564-.022-.427-.033-.564a2.042,2.042,0,0,0-2.327-2.086h-1.945v4.907Zm2.41-10.224v3.4h2.559a2.058,2.058,0,0,0,1.447-.462,1.555,1.555,0,0,0,.515-1.214,1.68,1.68,0,0,0-.482-1.248,1.923,1.923,0,0,0-1.413-.479Z" transform="translate(1222.469 3146.052)" fill="#343434"/>
    <path id="Path_101" data-name="Path 101" d="M133.165,31.531a5.93,5.93,0,0,1-3.741-1.043,3.8,3.8,0,0,1-1.4-3.009h2.36a2.157,2.157,0,0,0,.749,1.573,3.228,3.228,0,0,0,1.928.479,3.282,3.282,0,0,0,1.662-.376,1.306,1.306,0,0,0,.649-1.2,1.468,1.468,0,0,0-.083-.513.757.757,0,0,0-.3-.41,3.854,3.854,0,0,0-.4-.291,2.047,2.047,0,0,0-.614-.239q-.448-.137-.682-.188-.233-.068-.864-.222-.766-.188-1.263-.325a6.7,6.7,0,0,1-1.081-.427,3.677,3.677,0,0,1-.931-.633,3.069,3.069,0,0,1-.564-.923,3.511,3.511,0,0,1-.233-1.317,3.179,3.179,0,0,1,1.246-2.7,5.334,5.334,0,0,1,3.309-.957,4.967,4.967,0,0,1,3.241.992,3.815,3.815,0,0,1,1.346,2.821h-2.311a1.894,1.894,0,0,0-.731-1.368,2.47,2.47,0,0,0-1.563-.479,2.746,2.746,0,0,0-1.562.393,1.206,1.206,0,0,0-.583,1.043,1.1,1.1,0,0,0,.565,1.026,8.305,8.305,0,0,0,2.028.65q.865.188,1.413.359a7.137,7.137,0,0,1,1.181.462,3.208,3.208,0,0,1,1,.65,2.655,2.655,0,0,1,.6.958,3.4,3.4,0,0,1,.25,1.351,3.437,3.437,0,0,1-1.28,2.838A5.179,5.179,0,0,1,133.165,31.531Z" transform="translate(1224.536 3146.012)" fill="#343434"/>
    <path id="Path_102" data-name="Path 102" d="M57.421,47.514V35.289h2.444l3.956,6.822q.166.291.366.718.216.427.332.718l.133.274h.033q-.066-1.265-.066-2.12V35.289H67V47.514H64.669L60.613,40.76q-.166-.291-.382-.7-.216-.427-.332-.718l-.133-.274h-.033Q59.8,40.35,59.8,41.2v6.309Z" transform="translate(1208.718 3149.703)" fill="#343434"/>
    <path id="Path_103" data-name="Path 103" d="M67.546,47.514V35.289H76.29v2.086H69.957v2.736h5.552v2.035H69.957v3.3H76.34v2.069Z" transform="translate(1210.986 3149.703)" fill="#343434"/>
    <path id="Path_104" data-name="Path 104" d="M76.267,37.375V35.289h9.559v2.086H82.251V47.514h-2.41V37.375Z" transform="translate(1212.94 3149.703)" fill="#343434"/>
    <path id="Path_105" data-name="Path 105" d="M88.864,47.514,85.407,35.289h2.46l1.546,6.07.515,2.667h.033q.3-1.522.549-2.6l1.3-6.138h2.327l1.3,6.121.548,2.616h.033q.349-1.624.582-2.684l1.5-6.053h2.377L97.076,47.514H94.832l-1.446-6.549-.416-2.171h-.033q-.183,1.282-.382,2.171l-1.463,6.549Z" transform="translate(1214.988 3149.703)" fill="#343434"/>
    <path id="Path_106" data-name="Path 106" d="M108.4,46.053a5.766,5.766,0,0,1-8.329,0,6.727,6.727,0,0,1-1.563-4.582,6.727,6.727,0,0,1,1.563-4.582,5.728,5.728,0,0,1,8.329,0,6.727,6.727,0,0,1,1.562,4.582A6.727,6.727,0,0,1,108.4,46.053Zm-6.584-1.47a2.826,2.826,0,0,0,2.444,1.214,2.752,2.752,0,0,0,2.41-1.2,5.423,5.423,0,0,0,.831-3.129,5.424,5.424,0,0,0-.831-3.129,2.74,2.74,0,0,0-2.41-1.214,2.826,2.826,0,0,0-2.444,1.214,5.353,5.353,0,0,0-.847,3.129A5.321,5.321,0,0,0,101.816,44.583Z" transform="translate(1217.923 3149.658)" fill="#343434"/>
    <path id="Path_107" data-name="Path 107" d="M109.758,47.514V35.289h5.453a3.973,3.973,0,0,1,2.759.94,3.131,3.131,0,0,1,1.064,2.462,2.776,2.776,0,0,1-2.178,2.958V41.7a2.349,2.349,0,0,1,1.263.821,3.17,3.17,0,0,1,.548,1.641q.035.41.067.975.05.547.066.872l.066.65a3.06,3.06,0,0,0,.116.513.439.439,0,0,0,.2.222v.12h-2.31a.289.289,0,0,1-.116-.12,1.085,1.085,0,0,1-.083-.274c-.022-.114-.045-.228-.067-.342s-.027-.279-.049-.462-.022-.359-.034-.5-.027-.336-.049-.564-.022-.427-.033-.564a2.044,2.044,0,0,0-2.328-2.086h-1.945v4.907Zm2.41-10.224v3.4h2.561a2.052,2.052,0,0,0,1.446-.462,1.551,1.551,0,0,0,.515-1.214,1.68,1.68,0,0,0-.482-1.248,1.921,1.921,0,0,0-1.413-.479Z" transform="translate(1220.443 3149.703)" fill="#343434"/>
    <path id="Path_108" data-name="Path 108" d="M119.419,47.514V35.289h2.41v4.873l4.572-4.873h2.993l-4.655,4.89,4.954,7.335h-2.826L123.043,41.8l-1.214,1.265v4.445Z" transform="translate(1222.607 3149.703)" fill="#343434"/>
  </g>
</svg>
