<svg xmlns="http://www.w3.org/2000/svg" width="234.026" height="56.206" viewBox="0 0 234.026 56.206">
  <g id="Group_42" data-name="Group 42" transform="translate(-519.855 -3143.732)">
    <path id="Path_69" data-name="Path 69" d="M28.3,0a1.615,1.615,0,0,1,1.615,1.615V2c0,4.432.048,10.487,3.04,15.47,2.9,4.827,8.819,9.015,21.509,9.015h.323a1.615,1.615,0,1,1,0,3.23h-.329c-12.682,0-18.6,4.211-21.5,9.052-2.993,5-3.041,11.053-3.041,15.434v.387a1.615,1.615,0,0,1-3.23,0V54.2c0-4.381-.048-10.437-3.041-15.434-2.9-4.839-8.817-9.048-21.491-9.052H1.811a1.615,1.615,0,0,1,0-3.23h.323c12.69,0,18.611-4.188,21.509-9.015C26.636,12.489,26.683,6.433,26.683,2V1.615A1.615,1.615,0,0,1,28.3,0Zm-.162,36.5a8.56,8.56,0,1,0-8.56-8.56A8.56,8.56,0,0,0,28.137,36.5Z" transform="translate(519.659 3143.732)" fill="#343434" fill-rule="evenodd"/>
    <path id="Path_70" data-name="Path 70" d="M69.152,22.938V9.8h4.927a5.53,5.53,0,0,1,2.54.526A3.592,3.592,0,0,1,78.178,11.8a4.4,4.4,0,0,1,.532,2.2,4.3,4.3,0,0,1-.539,2.194A3.557,3.557,0,0,1,76.6,17.626a5.856,5.856,0,0,1-2.553.5H70.537V16.15h3.189a3.686,3.686,0,0,0,1.45-.244,1.726,1.726,0,0,0,.834-.725A2.34,2.34,0,0,0,76.286,14a2.413,2.413,0,0,0-.276-1.193,1.755,1.755,0,0,0-.84-.757,3.465,3.465,0,0,0-1.456-.263H71.532v11.15Zm6.788-5.954,3.253,5.954H76.536l-3.195-5.954Z" transform="translate(528.217 3144.948)" fill="#343434"/>
    <path id="Path_71" data-name="Path 71" d="M94.6,16.388a7.729,7.729,0,0,1-.8,3.638,5.634,5.634,0,0,1-2.156,2.31,6.35,6.35,0,0,1-6.178,0,5.735,5.735,0,0,1-2.156-2.316,7.768,7.768,0,0,1-.789-3.631,7.743,7.743,0,0,1,.789-3.631,5.68,5.68,0,0,1,2.156-2.316,6.35,6.35,0,0,1,6.178,0A5.625,5.625,0,0,1,93.8,12.757,7.69,7.69,0,0,1,94.6,16.388Zm-2.393,0a6.06,6.06,0,0,0-.468-2.521,3.47,3.47,0,0,0-1.283-1.559,3.63,3.63,0,0,0-3.785,0,3.509,3.509,0,0,0-1.289,1.559,6.132,6.132,0,0,0-.462,2.521,6.177,6.177,0,0,0,.462,2.528,3.556,3.556,0,0,0,1.289,1.559,3.667,3.667,0,0,0,3.785,0,3.516,3.516,0,0,0,1.283-1.559A6.1,6.1,0,0,0,92.2,16.388Z" transform="translate(529.877 3144.929)" fill="#343434"/>
    <path id="Path_72" data-name="Path 72" d="M99.633,22.938H97.092L101.718,9.8h2.938l4.631,13.139h-2.54l-3.509-10.444h-.1Zm.083-5.152h6.929V19.7H99.716Z" transform="translate(531.685 3144.948)" fill="#343434"/>
    <path id="Path_73" data-name="Path 73" d="M117.148,22.938H112.7V9.8h4.543a6.76,6.76,0,0,1,3.361.789,5.276,5.276,0,0,1,2.168,2.252,7.589,7.589,0,0,1,.758,3.516,7.588,7.588,0,0,1-.763,3.529,5.279,5.279,0,0,1-2.188,2.265A6.972,6.972,0,0,1,117.148,22.938Zm-2.072-2.059h1.956a4.741,4.741,0,0,0,2.291-.5A3.2,3.2,0,0,0,120.7,18.87a6.03,6.03,0,0,0,.462-2.515,5.94,5.94,0,0,0-.462-2.5,3.148,3.148,0,0,0-1.367-1.495,4.539,4.539,0,0,0-2.232-.5h-2.027Z" transform="translate(533.621 3144.948)" fill="#343434"/>
    <path id="Path_74" data-name="Path 74" d="M127.555,22.938V9.8h4.927a5.53,5.53,0,0,1,2.54.526,3.591,3.591,0,0,1,1.559,1.476,4.4,4.4,0,0,1,.533,2.2,4.3,4.3,0,0,1-.54,2.194A3.56,3.56,0,0,1,135,17.626a5.856,5.856,0,0,1-2.553.5h-3.509V16.15h3.188a3.688,3.688,0,0,0,1.45-.244,1.726,1.726,0,0,0,.834-.725,2.335,2.335,0,0,0,.275-1.18,2.408,2.408,0,0,0-.275-1.193,1.757,1.757,0,0,0-.841-.757,3.462,3.462,0,0,0-1.456-.263h-2.182v11.15Zm6.787-5.954,3.253,5.954h-2.656l-3.195-5.954Z" transform="translate(535.466 3144.948)" fill="#343434"/>
    <path id="Path_75" data-name="Path 75" d="M149.5,9.8h2.38v8.584a4.605,4.605,0,0,1-.667,2.483,4.512,4.512,0,0,1-1.86,1.674,6.9,6.9,0,0,1-5.614,0,4.5,4.5,0,0,1-1.86-1.674,4.632,4.632,0,0,1-.661-2.483V9.8h2.38v8.385a2.943,2.943,0,0,0,.36,1.463,2.612,2.612,0,0,0,1.026,1.007,3.59,3.59,0,0,0,3.131,0,2.555,2.555,0,0,0,1.026-1.007,2.943,2.943,0,0,0,.36-1.463Z" transform="translate(537.162 3144.948)" fill="#343434"/>
    <path id="Path_76" data-name="Path 76" d="M167.02,9.8V22.938H164.9l-6.192-8.95H158.6v8.95h-2.38V9.8h2.13l6.185,8.956h.115V9.8Z" transform="translate(539.024 3144.948)" fill="#343434"/>
    <path id="Path_77" data-name="Path 77" d="M182.147,9.8V22.938h-2.118l-6.19-8.95h-.109v8.95h-2.38V9.8h2.129l6.185,8.956h.116V9.8Z" transform="translate(540.901 3144.948)" fill="#343434"/>
    <path id="Path_78" data-name="Path 78" d="M186.476,22.938V9.8h8.545v2h-6.165v3.567h5.722v2h-5.722v3.586h6.216v2Z" transform="translate(542.778 3144.948)" fill="#343434"/>
    <path id="Path_79" data-name="Path 79" d="M199.453,22.938V9.8h4.927a5.531,5.531,0,0,1,2.54.526A3.6,3.6,0,0,1,208.48,11.8a4.41,4.41,0,0,1,.532,2.2,4.3,4.3,0,0,1-.538,2.194,3.56,3.56,0,0,1-1.572,1.431,5.861,5.861,0,0,1-2.554.5h-3.509V16.15h3.189a3.688,3.688,0,0,0,1.45-.244,1.731,1.731,0,0,0,.834-.725,2.347,2.347,0,0,0,.275-1.18,2.42,2.42,0,0,0-.275-1.193,1.757,1.757,0,0,0-.841-.757,3.468,3.468,0,0,0-1.457-.263h-2.181v11.15Zm6.787-5.954,3.252,5.954h-2.655l-3.2-5.954Z" transform="translate(544.389 3144.948)" fill="#343434"/>
    <path id="Path_80" data-name="Path 80" d="M70.078,28.549l3.9,11.06h.154l3.9-11.06H79.7L74.876,41.688H73.234L68.41,28.549Z" transform="translate(528.125 3147.275)" fill="#343434"/>
    <path id="Path_81" data-name="Path 81" d="M83.489,41.688V28.549h7.93V29.96H85.08V34.4h5.928v1.411H85.08v4.465h6.441v1.411Z" transform="translate(529.996 3147.275)" fill="#343434"/>
    <path id="Path_82" data-name="Path 82" d="M106.727,28.549V41.688h-1.54L98.028,31.372H97.9V41.688H96.309V28.549h1.54l7.185,10.342h.129V28.549Z" transform="translate(531.588 3147.275)" fill="#343434"/>
    <path id="Path_83" data-name="Path 83" d="M110.984,29.96V28.549h9.855V29.96h-4.132V41.688h-1.591V29.96Z" transform="translate(533.409 3147.275)" fill="#343434"/>
    <path id="Path_84" data-name="Path 84" d="M133.772,28.549h1.591v8.7a4.581,4.581,0,0,1-.635,2.406,4.449,4.449,0,0,1-1.777,1.662,6.322,6.322,0,0,1-5.389,0,4.487,4.487,0,0,1-1.783-1.662,4.62,4.62,0,0,1-.63-2.406v-8.7h1.592V37.12a3.427,3.427,0,0,0,.423,1.713,3.044,3.044,0,0,0,1.206,1.174,4.413,4.413,0,0,0,3.773,0,2.98,2.98,0,0,0,1.206-1.174,3.427,3.427,0,0,0,.424-1.713Z" transform="translate(535.167 3147.275)" fill="#343434"/>
    <path id="Path_85" data-name="Path 85" d="M140.276,41.688V28.549h4.439a5.356,5.356,0,0,1,2.528.526,3.351,3.351,0,0,1,1.462,1.431,4.411,4.411,0,0,1,.476,2.072,4.335,4.335,0,0,1-.476,2.059,3.342,3.342,0,0,1-1.456,1.411,5.454,5.454,0,0,1-2.509.507h-3.593V35.118h3.542a3.939,3.939,0,0,0,1.693-.308,1.941,1.941,0,0,0,.936-.873,2.928,2.928,0,0,0,.3-1.36,3.048,3.048,0,0,0-.3-1.379,2.011,2.011,0,0,0-.942-.911,3.824,3.824,0,0,0-1.713-.327h-2.8V41.688Zm6.185-5.9,3.233,5.9h-1.848l-3.181-5.9Z" transform="translate(537.044 3147.275)" fill="#343434"/>
    <path id="Path_86" data-name="Path 86" d="M153.77,41.688V28.549H161.7V29.96h-6.338V34.4h5.927v1.411h-5.927v4.465H161.8v1.411Z" transform="translate(538.719 3147.275)" fill="#343434"/>
    <path id="Path_87" data-name="Path 87" d="M173.838,31.853a2.015,2.015,0,0,0-.936-1.514,3.6,3.6,0,0,0-2.014-.539,3.829,3.829,0,0,0-1.528.282,2.443,2.443,0,0,0-1.014.776,1.861,1.861,0,0,0-.359,1.123,1.606,1.606,0,0,0,.25.9,2.233,2.233,0,0,0,.655.622,4.679,4.679,0,0,0,.834.4q.435.154.8.25l1.334.359a11.709,11.709,0,0,1,1.142.372,5.282,5.282,0,0,1,1.213.648,3.31,3.31,0,0,1,.962,1.039,3,3,0,0,1,.378,1.559A3.458,3.458,0,0,1,175,40.065a3.8,3.8,0,0,1-1.616,1.367,5.925,5.925,0,0,1-2.573.507,6.017,6.017,0,0,1-2.444-.455,3.9,3.9,0,0,1-1.618-1.27,3.619,3.619,0,0,1-.66-1.893h1.642a2.053,2.053,0,0,0,.5,1.232,2.7,2.7,0,0,0,1.116.719,4.52,4.52,0,0,0,1.462.231,4.306,4.306,0,0,0,1.636-.3,2.808,2.808,0,0,0,1.149-.834,1.977,1.977,0,0,0,.424-1.257,1.541,1.541,0,0,0-.366-1.065,2.683,2.683,0,0,0-.962-.667,10.123,10.123,0,0,0-1.289-.449l-1.616-.462a6.026,6.026,0,0,1-2.438-1.264,2.778,2.778,0,0,1-.9-2.149,3.186,3.186,0,0,1,.6-1.925,3.965,3.965,0,0,1,1.616-1.283,5.457,5.457,0,0,1,2.277-.462,5.334,5.334,0,0,1,2.258.455,3.911,3.911,0,0,1,1.566,1.232,3.07,3.07,0,0,1,.616,1.777Z" transform="translate(540.248 3147.256)" fill="#343434"/>
  </g>
</svg>
