<svg xmlns="http://www.w3.org/2000/svg" width="230.762" height="40.468" viewBox="0 0 230.762 40.468">
  <path id="SeaLegacy" d="M63.678.531c-.3-.536-1.115-.533-1.6-.531H62a8.944,8.944,0,0,0-2.428.492A46.16,46.16,0,0,1,54,1.857c-.929.152-1.893.265-2.821.341-.464.038-.928.038-1.393.038s-.928,0-1.393.038a5.244,5.244,0,0,0-1.964.644,10.1,10.1,0,0,0-1.571,1.25c-.139.132-.277.265-.416.4h0A8.258,8.258,0,0,1,41.61,6.63a22.058,22.058,0,0,1-2.653.742h0c-.573.135-1.144.269-1.7.432a30.447,30.447,0,0,0-4.035,1.477c-1.143.53-2.285,1.137-3.392,1.781a6.543,6.543,0,0,0-.712.491h0A4.95,4.95,0,0,1,28,12.237a3.823,3.823,0,0,1-1.428.4l-.108.016a3.118,3.118,0,0,1-1.156-.006,5.2,5.2,0,0,0-.808-.07c-.248,0-.51.272-.8.567a4.811,4.811,0,0,1-.526.494,7.675,7.675,0,0,1-1.107.682c-.321.152-.607.3-.214.53a1.31,1.31,0,0,0,.867.021c.14-.024.282-.048.418-.059a21.28,21.28,0,0,1,2.25-.076h0a29.75,29.75,0,0,1,4.856.492c.893.152,1.785.379,2.678.606.464.114.928.265,1.393.417h0a5.18,5.18,0,0,0,1.321.3A6.787,6.787,0,0,0,38.11,16.1a2.95,2.95,0,0,0,1.714-1.25c.082-.131.154-.267.225-.4h0a3.55,3.55,0,0,1,.382-.621,2.576,2.576,0,0,1,.821-.72,4.132,4.132,0,0,1,.878-.315l.229-.064,1.071-.341a6.447,6.447,0,0,0,1.964-1.136,7.643,7.643,0,0,0,1.393-1.667c.276-.454.521-.937.766-1.422h0a13.31,13.31,0,0,1,1.305-2.215,4.29,4.29,0,0,1,1.714-1.326,15.573,15.573,0,0,1,2.571-.8c.893-.189,1.785-.341,2.714-.492a21.024,21.024,0,0,0,2.643-.72c.4-.127.8-.266,1.2-.4h0a18.129,18.129,0,0,1,3.124-.883c.056-.008.115-.015.176-.022h0a1.561,1.561,0,0,0,.645-.168C63.821,1.023,63.749.758,63.678.531ZM63.535,2.16a17.3,17.3,0,0,0-3.678,1.1A32.044,32.044,0,0,1,55.715,4.4c-.294.061-.589.117-.886.174a19.177,19.177,0,0,0-2.971.735,5.708,5.708,0,0,0-1.714.871,5.091,5.091,0,0,0-1.214,1.44,10.63,10.63,0,0,0-.456,1.108h0c-.082.223-.165.448-.258.672a5.205,5.205,0,0,1-.857,1.44,9.13,9.13,0,0,1-2.607,2.159,11.78,11.78,0,0,1-1.393.682l-.256.092c-.333.12-.652.234-.994.325a1.888,1.888,0,0,0-.857.758,1.829,1.829,0,0,0-.429,1.1.4.4,0,0,0,.179.341.336.336,0,0,0,.163.082.454.454,0,0,1,.087.031c.071.038.152.076.232.114h0c.08.038.161.076.232.114.464.265,1.107.682,1.214,1.288a2.861,2.861,0,0,1-.071,1.1c-.036.152-.071.313-.107.474h0c-.036.161-.071.322-.107.473a20.441,20.441,0,0,1-.75,2.084c-.1.237-.212.466-.324.693h0a6.546,6.546,0,0,0-.533,1.315c-.071.379-.107.8.286.947a2.3,2.3,0,0,0,1.208-.023l.078-.015a7.277,7.277,0,0,0,1.214-.341A27.467,27.467,0,0,0,46.645,23.3q1.5-.8,2.892-1.7a17.229,17.229,0,0,0,5.356-5.683c.336-.588.625-1.21.914-1.834a22.005,22.005,0,0,1,1.05-2.068,13.871,13.871,0,0,1,2.528-2.871l.329-.311Q61.16,7.407,62.5,5.873A6.647,6.647,0,0,0,63.964,2.88C63.964,2.539,63.964,2.122,63.535,2.16ZM50.144,25.421a25.428,25.428,0,0,1,.393,3.864,20.97,20.97,0,0,1-.185,2.288h0c-.078.676-.156,1.34-.172,1.917-.015.389-.024.718-.031,1.009v0h0a11.472,11.472,0,0,1-.326,2.852,3.786,3.786,0,0,1-.288.767h0c-.065.141-.136.3-.212.483a6.062,6.062,0,0,1-.679,1.326c-.179.227-.536.682-1.071.492a.941.941,0,0,1-.464-.568,4.428,4.428,0,0,1-.156-.6h0c-.018-.087-.037-.176-.058-.269-.1-.6-.179-1.271-.253-1.913h0c-.057-.494-.113-.97-.175-1.382a16.255,16.255,0,0,0-.714-2.766c-.255-.789-.5-1.483-.682-2.013h0c-.126-.36-.224-.644-.282-.828a19.289,19.289,0,0,1-.571-2.387,7.129,7.129,0,0,1-.071-1.25h0a.958.958,0,0,1,.143-.644,2.538,2.538,0,0,1,.988-.63h0l.19-.089.359-.169,0,0h0l0,0h0a13.983,13.983,0,0,0,1.631-.849c.2-.114.357-.2.527-.289s.348-.185.58-.317a1.412,1.412,0,0,1,.786-.265C49.751,23.337,49.93,24.095,50.144,25.421Zm-8.5-7.084a1.426,1.426,0,0,0-.463-.72l-.072-.076a2,2,0,0,0-1.071-.492,4.235,4.235,0,0,0-1.535.265l-.082.027a4.15,4.15,0,0,0-1.275.579,5.174,5.174,0,0,0-.8.854c-.078.1-.155.192-.232.283L35.039,20.42q-.259.316-.517.626h0c-.54.652-1.075,1.3-1.589,1.987a31.564,31.564,0,0,0-1.786,2.69c-.536.947-.893,1.591-1.357,2.538-.068.145-.153.35-.255.593a16.25,16.25,0,0,1-1.459,2.892c-.652,1.008-1.283,1.885-1.783,2.581-.158.219-.3.42-.431.6a8.175,8.175,0,0,0-1.071,2.311c-.107.492-.107.682.429.871a4.147,4.147,0,0,0,2.316-.387h0l.183-.068a10.135,10.135,0,0,0,2.643-1.478l.2-.153A10.836,10.836,0,0,0,32.4,34.286c.282-.32.664-.808,1.03-1.276h0c.328-.419.643-.822.862-1.073.625-.663,1.341-1.494,1.823-2.054h0l0,0,.316-.366c.135-.15.3-.324.48-.515a9.488,9.488,0,0,0,2.234-3.046c.082-.343.151-.645.214-.921a13.445,13.445,0,0,1,1.25-3.625,12.885,12.885,0,0,0,.928-2.311A1.307,1.307,0,0,0,41.645,18.336Zm-6.57-.568.036.038c.25.189.179.455.036.72a6.275,6.275,0,0,1-.733.857l-.2.2a13.347,13.347,0,0,0-1.178,1.326,26.109,26.109,0,0,0-2.25,3.3c-.087.154-.174.31-.262.468-.236.425-.478.86-.738,1.275a4.18,4.18,0,0,1-1.071,1.326,2.539,2.539,0,0,1-1.571.341c-.2-.013-.414-.021-.624-.03h0c-.413-.017-.831-.034-1.233-.084a23.355,23.355,0,0,1-6.963-1.781,19.3,19.3,0,0,1-3.035-1.553,26.134,26.134,0,0,1-2.714-1.97,19.2,19.2,0,0,1-1.928-1.932,5.473,5.473,0,0,1-.571-.72,2.3,2.3,0,0,1-.536-1.25.828.828,0,0,1,.3-.578,1.025,1.025,0,0,0,.273-.407,2.287,2.287,0,0,0,0-1.1,3.893,3.893,0,0,0-.321-.909c-.158-.364-.336-.706-.518-1.059-.065-.125-.13-.251-.2-.38l-.022-.034a.775.775,0,0,1-.157-.383c0-.128.153-.121.265-.116h0l.056,0a1.892,1.892,0,0,1,1.064.589l.15.13a7.665,7.665,0,0,0,1.5.909,13.43,13.43,0,0,0,3.392.985l1.821.227a13.636,13.636,0,0,0,1.75.152,14.842,14.842,0,0,0,2.241-.23c.467-.072.934-.143,1.4-.187a24.78,24.78,0,0,1,3.749-.038A24.4,24.4,0,0,1,30,16.4c.345.076.69.147,1.036.219.69.143,1.381.286,2.071.463l.151.044A12.361,12.361,0,0,1,35.075,17.768Zm-19.64-6.895a2.193,2.193,0,0,0-.357-.909L15.07,9.95c-.106-.188-.248-.439-.492-.4a.41.41,0,0,0-.321.227,1.8,1.8,0,0,1-.679.606,4.211,4.211,0,0,1-1.139.421h0l-.289.072a5.029,5.029,0,0,0-1.714.644,5.853,5.853,0,0,0-.786.568c-.143.152-.179.379,0,.492a.036.036,0,0,1,.036.038,4.6,4.6,0,0,1,1.607.8,10.938,10.938,0,0,0,1.428.833c.084.033.167.07.252.107h0a3.764,3.764,0,0,0,.641.234,1.255,1.255,0,0,0,.75.076c.385-.136.568-.639.7-1.014h0l.045-.122c.028-.076.057-.154.086-.233h0a4.071,4.071,0,0,0,.342-1.358c-.011-.12-.019-.237-.027-.35h0A5.07,5.07,0,0,0,15.435,10.873ZM8.614,15.04a3.2,3.2,0,0,1,.357,1.174,1.369,1.369,0,0,1-.179.985l-.036.038a.036.036,0,0,1-.036.038.126.126,0,0,1-.107.038,6.361,6.361,0,0,1-1.624-.187l-.2-.04a9.159,9.159,0,0,1-2.75-1.1,9.885,9.885,0,0,1-1.393-1.061,7.564,7.564,0,0,1-1.071-1.1,7.455,7.455,0,0,1-.928-1.591,6.878,6.878,0,0,1-.393-1.212,1.329,1.329,0,0,1,.036-.909c.2-.448.39-.3.693-.07h0l.092.07h0a7.311,7.311,0,0,0,1.036.682,6.737,6.737,0,0,0,2.158.658h0l.128.024c.138.031.277.06.417.089h0a9.826,9.826,0,0,1,1.154.29l.085.027a2.452,2.452,0,0,1,1.272.768,3.343,3.343,0,0,1,.607,1.023c.123.283.259.542.392.8h0C8.426,14.662,8.523,14.848,8.614,15.04ZM85.273,29.56q-4.623,0-7.174-1.945A7.018,7.018,0,0,1,75.421,22h4.528a3.974,3.974,0,0,0,1.435,2.933,6.329,6.329,0,0,0,3.7.893,6.439,6.439,0,0,0,3.188-.7A2.419,2.419,0,0,0,89.513,22.9a2.652,2.652,0,0,0-.159-.957,1.418,1.418,0,0,0-.574-.765,7.739,7.739,0,0,0-.765-.542,4.007,4.007,0,0,0-1.18-.446q-.861-.255-1.307-.351-.446-.127-1.658-.414-1.467-.351-2.423-.606a13.1,13.1,0,0,1-2.072-.8,7.031,7.031,0,0,1-1.786-1.18A5.689,5.689,0,0,1,76.5,15.116a6.4,6.4,0,0,1-.446-2.455A5.867,5.867,0,0,1,78.45,7.624a10.438,10.438,0,0,1,6.345-1.786,9.712,9.712,0,0,1,6.217,1.849,7.046,7.046,0,0,1,2.583,5.261H89.163a3.51,3.51,0,0,0-1.4-2.551,4.827,4.827,0,0,0-3-.893,5.392,5.392,0,0,0-3,.733,2.234,2.234,0,0,0-1.116,1.945A2.036,2.036,0,0,0,81.734,14.1a16.269,16.269,0,0,0,3.89,1.212q1.658.351,2.71.67a13.86,13.86,0,0,1,2.264.861A6.181,6.181,0,0,1,92.51,18.05a4.981,4.981,0,0,1,1.148,1.785,6.191,6.191,0,0,1,.478,2.519,6.336,6.336,0,0,1-2.455,5.293A10.13,10.13,0,0,1,85.273,29.56Zm18.958-.032A8.094,8.094,0,0,1,98.014,27.1a8.859,8.859,0,0,1-2.264-6.249,8.687,8.687,0,0,1,2.264-6.122,7.5,7.5,0,0,1,5.8-2.487,7.143,7.143,0,0,1,5.962,2.678,11.3,11.3,0,0,1,2.1,7.174H100.022a5.181,5.181,0,0,0,1.307,3.029,3.877,3.877,0,0,0,2.87,1.052,3.044,3.044,0,0,0,3.157-2.009h4.272A6.426,6.426,0,0,1,109.2,28,7.8,7.8,0,0,1,104.231,29.528Zm-.351-13.933q-3.157,0-3.794,3.507h7.27a3.747,3.747,0,0,0-1.052-2.519A3.228,3.228,0,0,0,103.88,15.595Zm19.8,11.638a4.347,4.347,0,0,0,.51,1.817h4.176V28.89q-.573-.414-.573-2.264V18.3q0-6.026-6.887-6.026a7.725,7.725,0,0,0-5.165,1.53,5.164,5.164,0,0,0-1.881,3.858h3.858q.191-2.3,3.157-2.3a3.287,3.287,0,0,1,2.04.542,1.64,1.64,0,0,1,.7,1.4,1.23,1.23,0,0,1-.828,1.212,16.5,16.5,0,0,1-3.125.638,11.459,11.459,0,0,0-4.846,1.626,4.054,4.054,0,0,0-1.722,3.635,4.553,4.553,0,0,0,1.563,3.7,6.25,6.25,0,0,0,4.145,1.307,6.561,6.561,0,0,0,3.029-.574,4.844,4.844,0,0,0,1.785-1.626Zm-1.021-1.754a4.024,4.024,0,0,1-2.806.925q-2.55,0-2.551-2.072a1.78,1.78,0,0,1,.766-1.594,7.7,7.7,0,0,1,2.615-.957,12.9,12.9,0,0,0,3.028-.957v2.455A2.838,2.838,0,0,1,122.658,25.479ZM130.9,29.05V6.253h4.623V25.192h10.713V29.05ZM149.514,27.1a8.092,8.092,0,0,0,6.217,2.423A7.8,7.8,0,0,0,160.7,28a6.425,6.425,0,0,0,2.424-3.826h-4.273A3.044,3.044,0,0,1,155.7,26.18a3.878,3.878,0,0,1-2.87-1.052,5.178,5.178,0,0,1-1.306-3.029h11.86a11.3,11.3,0,0,0-2.1-7.174,7.143,7.143,0,0,0-5.962-2.678,7.493,7.493,0,0,0-5.8,2.487,8.685,8.685,0,0,0-2.264,6.122A8.857,8.857,0,0,0,149.514,27.1Zm2.072-8q.637-3.507,3.795-3.507a3.228,3.228,0,0,1,2.422.988,3.75,3.75,0,0,1,1.052,2.519ZM172.6,34.629a9.453,9.453,0,0,1-5.324-1.339,5.253,5.253,0,0,1-2.328-3.762h4.3q.637,1.817,3.285,1.817,3.634,0,3.634-3.412V26.148h-.1a5.454,5.454,0,0,1-4.273,1.913,7,7,0,0,1-5.07-2.136,7.675,7.675,0,0,1-2.136-5.675,8.278,8.278,0,0,1,1.977-5.8,6.543,6.543,0,0,1,5.1-2.2,5.233,5.233,0,0,1,4.527,2.168h.064V12.693h4.177V27.806a6.416,6.416,0,0,1-1.945,4.974Q176.517,34.629,172.6,34.629Zm-.063-10.043a3.432,3.432,0,0,0,2.9-1.243,5.082,5.082,0,0,0,.957-3.188A4.813,4.813,0,0,0,175.369,17a3.411,3.411,0,0,0-2.87-1.275,3.331,3.331,0,0,0-2.678,1.212,4.992,4.992,0,0,0-.989,3.252,4.913,4.913,0,0,0,.989,3.252A3.447,3.447,0,0,0,172.532,24.586Zm20.487,2.646a4.364,4.364,0,0,0,.51,1.817h4.177V28.89q-.575-.414-.574-2.264V18.3q0-6.026-6.886-6.026a7.723,7.723,0,0,0-5.165,1.53,5.165,5.165,0,0,0-1.882,3.858h3.858q.192-2.3,3.157-2.3a3.291,3.291,0,0,1,2.041.542,1.64,1.64,0,0,1,.7,1.4,1.23,1.23,0,0,1-.83,1.212,16.5,16.5,0,0,1-3.125.638,11.459,11.459,0,0,0-4.846,1.626,4.053,4.053,0,0,0-1.721,3.635,4.556,4.556,0,0,0,1.561,3.7,6.251,6.251,0,0,0,4.146,1.307,6.559,6.559,0,0,0,3.028-.574,4.847,4.847,0,0,0,1.786-1.626ZM192,25.479a4.024,4.024,0,0,1-2.806.925q-2.551,0-2.551-2.072a1.779,1.779,0,0,1,.764-1.594,7.7,7.7,0,0,1,2.615-.957,12.919,12.919,0,0,0,3.029-.957v2.455A2.838,2.838,0,0,1,192,25.479Zm15.478,4.049a7.942,7.942,0,0,1-6.089-2.455,8.7,8.7,0,0,1-2.3-6.186,8.844,8.844,0,0,1,2.232-6.185,7.688,7.688,0,0,1,5.931-2.455,7.588,7.588,0,0,1,5.037,1.626,6.927,6.927,0,0,1,2.391,4.368h-4.24a3.171,3.171,0,0,0-1.021-1.817,2.883,2.883,0,0,0-1.976-.7,3.435,3.435,0,0,0-2.934,1.371,6.238,6.238,0,0,0-1.02,3.794,6.478,6.478,0,0,0,.988,3.794,3.349,3.349,0,0,0,2.9,1.371,2.98,2.98,0,0,0,3.284-2.774h4.177a6.568,6.568,0,0,1-2.2,4.5A7.493,7.493,0,0,1,207.477,29.528Zm9.452,1.467v3.412h2.551a5.178,5.178,0,0,0,3.6-1.084,8.96,8.96,0,0,0,2.168-3.858l5.707-16.771H226.59l-2.3,7.365a32.581,32.581,0,0,0-.957,3.571h-.063l-1.052-3.571L219.8,12.693h-4.559l4.4,11.638a16.792,16.792,0,0,1,1.243,4.432q0,2.232-2.422,2.232Z" transform="translate(-0.196)" fill="#343434" fill-rule="evenodd"/>
</svg>
